<?xml version="1.0" encoding="UTF-8"?>
<svg id="Layer_1" xmlns="http://www.w3.org/2000/svg" version="1.1" xmlns:xlink="http://www.w3.org/1999/xlink" viewBox="0 0 1121.98 292.29">
  <!-- Generator: Adobe Illustrator 29.8.2, SVG Export Plug-In . SVG Version: 2.1.1 Build 3)  -->
  <defs>
    <style>
      .st0 {
        fill: url(#Degradado_sin_nombre_398);
      }

      .st1 {
        fill: url(#Degradado_sin_nombre_406);
      }

      .st2 {
        fill: url(#Degradado_sin_nombre_395);
      }

      .st3 {
        fill: url(#Degradado_sin_nombre_4121);
      }

      .st4 {
        fill: url(#Degradado_sin_nombre_4061);
      }

      .st5 {
        fill: #fff;
      }

      .st6 {
        fill: url(#Degradado_sin_nombre_407);
      }

      .st7 {
        fill: url(#Degradado_sin_nombre_399);
      }

      .st8 {
        fill: url(#Degradado_sin_nombre_408);
      }

      .st9 {
        fill: url(#Degradado_sin_nombre_400);
      }

      .st10 {
        fill: url(#Degradado_sin_nombre_409);
      }

      .st11 {
        fill: url(#Degradado_sin_nombre_4081);
      }

      .st12 {
        fill: url(#Degradado_sin_nombre_397);
      }

      .st13 {
        fill: url(#Degradado_sin_nombre_411);
      }

      .st14 {
        fill: url(#Degradado_sin_nombre_4071);
      }

      .st15 {
        fill: url(#Degradado_sin_nombre_394);
      }

      .st16 {
        fill: url(#Degradado_sin_nombre_4041);
      }

      .st17 {
        fill: url(#Degradado_sin_nombre_410);
      }

      .st18 {
        fill: url(#Degradado_sin_nombre_4131);
      }

      .st19 {
        fill: url(#Degradado_sin_nombre_412);
      }

      .st20 {
        fill: #642dd2;
      }

      .st21 {
        fill: url(#Degradado_sin_nombre_403);
      }

      .st22 {
        fill: url(#Degradado_sin_nombre_401);
      }

      .st23 {
        fill: url(#Degradado_sin_nombre_402);
      }

      .st24 {
        fill: url(#Degradado_sin_nombre_404);
      }

      .st25 {
        fill: url(#Degradado_sin_nombre_405);
      }

      .st26 {
        fill: url(#Degradado_sin_nombre_396);
      }

      .st27 {
        fill: url(#Degradado_sin_nombre_413);
      }

      .st28 {
        fill: url(#Degradado_sin_nombre_4111);
      }

      .st29 {
        fill: url(#Degradado_sin_nombre_4051);
      }

      .st30 {
        fill: url(#Degradado_sin_nombre_4101);
      }

      .st31 {
        fill: url(#Degradado_sin_nombre_4091);
      }
    </style>
    <linearGradient id="Degradado_sin_nombre_410" data-name="Degradado sin nombre 410" x1="140.48" y1="14.65" x2="140.48" y2="109.4" gradientUnits="userSpaceOnUse">
      <stop offset="0" stop-color="#ffc01f"/>
      <stop offset="1" stop-color="#fbae2c"/>
    </linearGradient>
    <linearGradient id="Degradado_sin_nombre_409" data-name="Degradado sin nombre 409" x1="222.11" y1="36.68" x2="143.38" y2="132.9" gradientUnits="userSpaceOnUse">
      <stop offset="0" stop-color="#fd52c8"/>
      <stop offset="1" stop-color="#b449d8"/>
    </linearGradient>
    <linearGradient id="Degradado_sin_nombre_408" data-name="Degradado sin nombre 408" x1="269.91" y1="106.29" x2="152.23" y2="135.71" gradientUnits="userSpaceOnUse">
      <stop offset="0" stop-color="#af55da"/>
      <stop offset="1" stop-color="#874bde"/>
    </linearGradient>
    <linearGradient id="Degradado_sin_nombre_406" data-name="Degradado sin nombre 406" x1="140.03" y1="173.69" x2="140.03" y2="282.63" gradientUnits="userSpaceOnUse">
      <stop offset="0" stop-color="#5e45d3"/>
      <stop offset="1" stop-color="#6555d6"/>
    </linearGradient>
    <linearGradient id="Degradado_sin_nombre_413" data-name="Degradado sin nombre 413" x1="163.22" y1="182.47" x2="224.44" y2="260.39" gradientUnits="userSpaceOnUse">
      <stop offset="0" stop-color="#6142d5"/>
      <stop offset="1" stop-color="#5b46d1"/>
    </linearGradient>
    <linearGradient id="Degradado_sin_nombre_407" data-name="Degradado sin nombre 407" x1="165.5" y1="179.97" x2="283.44" y2="179.97" gradientUnits="userSpaceOnUse">
      <stop offset="0" stop-color="#683fcf"/>
      <stop offset="1" stop-color="#6441d7"/>
    </linearGradient>
    <linearGradient id="Degradado_sin_nombre_412" data-name="Degradado sin nombre 412" x1="1.66" y1="96.5" x2="119.34" y2="149.77" gradientUnits="userSpaceOnUse">
      <stop offset="0" stop-color="#37cba1"/>
      <stop offset="1" stop-color="#14baa2"/>
    </linearGradient>
    <linearGradient id="Degradado_sin_nombre_411" data-name="Degradado sin nombre 411" x1="54.41" y1="26.49" x2="129.95" y2="134.64" gradientUnits="userSpaceOnUse">
      <stop offset="0" stop-color="#33cb7c"/>
      <stop offset="1" stop-color="#22ba98"/>
    </linearGradient>
    <linearGradient id="Degradado_sin_nombre_405" data-name="Degradado sin nombre 405" x1="141.93" y1="147.66" x2="58.43" y2="257.4" gradientUnits="userSpaceOnUse">
      <stop offset="0" stop-color="#3073a8"/>
      <stop offset="1" stop-color="#5c67d5"/>
    </linearGradient>
    <linearGradient id="Degradado_sin_nombre_404" data-name="Degradado sin nombre 404" x1="3.25" y1="194.16" x2="122.52" y2="142.48" gradientUnits="userSpaceOnUse">
      <stop offset="0" stop-color="#219ba5"/>
      <stop offset="1" stop-color="#288ba2"/>
    </linearGradient>
    <linearGradient id="Degradado_sin_nombre_4131" data-name="Degradado sin nombre 413" x1="161.84" y1="183.08" x2="222.54" y2="260.34" xlink:href="#Degradado_sin_nombre_413"/>
    <linearGradient id="Degradado_sin_nombre_4121" data-name="Degradado sin nombre 412" x1="2.24" y1="98.18" x2="118.92" y2="151" xlink:href="#Degradado_sin_nombre_412"/>
    <linearGradient id="Degradado_sin_nombre_4111" data-name="Degradado sin nombre 411" x1="54.73" y1="27.81" x2="129.62" y2="135.03" xlink:href="#Degradado_sin_nombre_411"/>
    <linearGradient id="Degradado_sin_nombre_4101" data-name="Degradado sin nombre 410" x1="141.87" y1="15.79" x2="141.87" y2="109.72" xlink:href="#Degradado_sin_nombre_410"/>
    <linearGradient id="Degradado_sin_nombre_4091" data-name="Degradado sin nombre 409" x1="221.24" y1="37.5" x2="143.2" y2="132.88" xlink:href="#Degradado_sin_nombre_409"/>
    <linearGradient id="Degradado_sin_nombre_4081" data-name="Degradado sin nombre 408" x1="268.62" y1="105.94" x2="151.95" y2="135.11" xlink:href="#Degradado_sin_nombre_408"/>
    <linearGradient id="Degradado_sin_nombre_4071" data-name="Degradado sin nombre 407" x1="165.28" y1="186.45" x2="282.21" y2="186.45" xlink:href="#Degradado_sin_nombre_407"/>
    <linearGradient id="Degradado_sin_nombre_4061" data-name="Degradado sin nombre 406" x1="138.78" y1="173.45" x2="138.78" y2="281.45" xlink:href="#Degradado_sin_nombre_406"/>
    <linearGradient id="Degradado_sin_nombre_4051" data-name="Degradado sin nombre 405" x1="141.73" y1="147.51" x2="58.95" y2="256.3" xlink:href="#Degradado_sin_nombre_405"/>
    <linearGradient id="Degradado_sin_nombre_4041" data-name="Degradado sin nombre 404" x1="3.15" y1="190.8" x2="121.4" y2="139.56" xlink:href="#Degradado_sin_nombre_404"/>
    <linearGradient id="Degradado_sin_nombre_403" data-name="Degradado sin nombre 403" x1="153.32" y1="146.41" x2="256.46" y2="146.41" gradientUnits="userSpaceOnUse">
      <stop offset="0" stop-color="#a465e3"/>
      <stop offset="1" stop-color="#8b53d7"/>
    </linearGradient>
    <linearGradient id="Degradado_sin_nombre_402" data-name="Degradado sin nombre 402" x1="23.61" y1="146.41" x2="127.37" y2="146.41" gradientUnits="userSpaceOnUse">
      <stop offset="0" stop-color="#20baa7"/>
      <stop offset="1" stop-color="#28bea8"/>
    </linearGradient>
    <linearGradient id="Degradado_sin_nombre_401" data-name="Degradado sin nombre 401" x1="48.06" y1="214.24" x2="125.31" y2="155.91" gradientUnits="userSpaceOnUse">
      <stop offset="0" stop-color="#449caf"/>
      <stop offset=".29" stop-color="#46acb4"/>
      <stop offset=".63" stop-color="#47b7b8"/>
      <stop offset="1" stop-color="#48bbba"/>
    </linearGradient>
    <linearGradient id="Degradado_sin_nombre_400" data-name="Degradado sin nombre 400" x1="229.46" y1="81.68" x2="154.83" y2="135.81" gradientUnits="userSpaceOnUse">
      <stop offset="0" stop-color="#ff4ab5"/>
      <stop offset=".31" stop-color="#fb4ab6"/>
      <stop offset=".58" stop-color="#f14dba"/>
      <stop offset=".82" stop-color="#e050c2"/>
      <stop offset="1" stop-color="#ce55ca"/>
    </linearGradient>
    <linearGradient id="Degradado_sin_nombre_399" data-name="Degradado sin nombre 399" x1="157.13" y1="158.42" x2="227.82" y2="210.19" gradientUnits="userSpaceOnUse">
      <stop offset="0" stop-color="#7a56d7"/>
      <stop offset="1" stop-color="#974ed3"/>
    </linearGradient>
    <linearGradient id="Degradado_sin_nombre_398" data-name="Degradado sin nombre 398" x1="49.55" y1="80.36" x2="126.28" y2="137.12" gradientUnits="userSpaceOnUse">
      <stop offset="0" stop-color="#82e1a2"/>
      <stop offset="1" stop-color="#6bcc95"/>
    </linearGradient>
    <linearGradient id="Degradado_sin_nombre_397" data-name="Degradado sin nombre 397" x1="108.64" y1="242.35" x2="134.65" y2="165.89" gradientUnits="userSpaceOnUse">
      <stop offset="0" stop-color="#a45dce"/>
      <stop offset="1" stop-color="#925fdd"/>
    </linearGradient>
    <linearGradient id="Degradado_sin_nombre_396" data-name="Degradado sin nombre 396" x1="148.08" y1="127.56" x2="171.99" y2="42.81" gradientUnits="userSpaceOnUse">
      <stop offset="0" stop-color="#ffd778"/>
      <stop offset=".14" stop-color="#ffd65f"/>
      <stop offset=".4" stop-color="#ffd436"/>
      <stop offset=".64" stop-color="#ffd319"/>
      <stop offset=".85" stop-color="#ffd307"/>
      <stop offset="1" stop-color="#ffd301"/>
    </linearGradient>
    <linearGradient id="Degradado_sin_nombre_395" data-name="Degradado sin nombre 395" x1="145.1" y1="159.73" x2="175.58" y2="256.78" gradientUnits="userSpaceOnUse">
      <stop offset="0" stop-color="#c892eb"/>
      <stop offset="1" stop-color="#a263d7"/>
    </linearGradient>
    <linearGradient id="Degradado_sin_nombre_394" data-name="Degradado sin nombre 394" x1="106.27" y1="39.22" x2="133.6" y2="131.19" gradientUnits="userSpaceOnUse">
      <stop offset="0" stop-color="#ffdd8f"/>
      <stop offset="1" stop-color="#ffd96b"/>
    </linearGradient>
  </defs>
  <g>
    <path class="st17" d="M169.56,38.12c1.54-1.61,4.06-1.88,6.33-1.18.01,0,.03,0,.04,0,.25.04.44.26.44.52h0c0,.08-.02.13-.04.19l-35.58,108.74c-.07.22-.27.36-.5.36-.23,0-.43-.15-.5-.36l-35.14-108.91c-.09-.28.06-.57.34-.66,2.31-.75,4.89-.47,6.45,1.17,3.81,4,8.42,8.22,13.39,11.44h0c4.97,3.22,10.34,5.46,15.65,5.47,5.33.01,10.69-2.21,15.68-5.4l.93-.61c4.63-3.12,8.92-7.04,12.5-10.78Z"/>
    <path class="st10" d="M175.37,37.22c.12-.21.38-.32.62-.24,2.31.75,4.23,2.5,4.53,4.74l.14,1.03c.7,4.86,1.81,10.14,3.58,15.05l.39,1.04c2.13,5.51,5.15,10.49,9.45,13.62h0c4.31,3.13,9.96,4.5,15.86,4.84,5.92.34,12.13-.34,17.56-1.32h0c2.24-.4,4.48.89,5.9,2.86.17.23.12.56-.12.73l-92.71,67.07c-.17.14-.41.16-.61.04-.2-.13-.3-.38-.22-.61l35.59-108.77.04-.1Z"/>
    <path class="st8" d="M232.66,78.73c.23-.17.56-.12.73.12,1.43,1.97,1.95,4.5.88,6.49-2.62,4.87-5.21,10.54-6.74,16.27-1.52,5.72-2,11.51-.36,16.57,1.63,5.06,5.41,9.49,9.99,13.24,4.59,3.76,10,6.85,14.98,9.26l.19.1c1.91,1.05,2.89,3.33,2.89,5.68h0c0,.3-.24.53-.53.53-.04,0-.08,0-.11-.01l-114.33-.22c-.23,0-.43-.15-.5-.36-.07-.22,0-.45.19-.59l92.72-67.08Z"/>
    <path class="st1" d="M140.34,145.73c.23.04.4.22.43.44l35.13,108.85c.09.28-.06.57-.34.66-2.31.75-4.89.47-6.45-1.18h0c-3.81-4-8.41-8.22-13.39-11.44h0c-4.97-3.22-10.34-5.46-15.65-5.47-4.99-.01-10.02,1.94-14.74,4.82l-.94.59c-4.99,3.19-9.61,7.39-13.43,11.37-1.57,1.64-4.15,1.9-6.45,1.15-.13-.04-.24-.14-.31-.26-.06-.12-.07-.27-.03-.4l35.59-108.77c.08-.25.33-.4.58-.35Z"/>
    <path class="st27" d="M140.26,145.72h.08c.11.03.21.08.29.16l92.37,67.4c.11.08.19.21.21.34.02.14-.01.28-.1.39-1.44,1.96-3.68,3.24-5.91,2.83h0c-5.43-1-11.64-1.7-17.55-1.39-5.91.33-11.57,1.66-15.88,4.78-4.04,2.92-6.96,7.46-9.09,12.56l-.41,1.03c-2.15,5.52-3.43,11.63-4.17,17.1-.3,2.25-2.23,3.97-4.54,4.72-.13.04-.28.03-.4-.03-.12-.06-.22-.17-.26-.31l-35.11-108.81c-.07-.13-.09-.28-.04-.42.07-.22.27-.36.5-.36h.01Z"/>
    <path class="st6" d="M254.81,145.97c.24.05.42.26.42.51,0,2.43-1.06,4.79-3.11,5.77h0c-4.98,2.38-10.42,5.46-15.02,9.2-4.59,3.73-8.38,8.14-10.04,13.19-1.65,5.06-1.2,10.85.3,16.58,1.5,5.73,4.06,11.43,6.67,16.29h0c1.07,2,.53,4.54-.9,6.5-.17.23-.5.28-.73.11l-92.36-67.39c-.06-.03-.11-.06-.15-.1-.1-.1-.15-.24-.15-.38h0c0-.21.11-.39.29-.48.11-.06.23-.07.35-.04l114.33.22h.11Z"/>
    <path class="st19" d="M47.45,78.41c.18-.16.46-.18.66-.04l92.45,67.44c.18.13.26.37.19.59-.07.22-.27.36-.5.36l-114.45-.22c-.29,0-.52-.24-.52-.52,0-2.43,1.06-4.79,3.11-5.77,4.98-2.38,10.42-5.46,15.02-9.2,4.59-3.73,8.38-8.14,10.03-13.19,1.65-5.06,1.2-10.85-.3-16.58-1.5-5.73-4.06-11.43-6.67-16.29h0c-1.07-2-.53-4.54.9-6.5l.07-.08Z"/>
    <path class="st13" d="M105.05,36.82c.1-.01.21,0,.3.05.12.06.22.17.26.31l35.11,108.8c.07.13.09.28.05.43-.07.22-.28.36-.5.36h-.01c-.14,0-.27-.06-.37-.16L47.51,79.22c-.11-.08-.19-.21-.21-.34-.02-.14.01-.28.1-.39,1.44-1.96,3.68-3.24,5.91-2.83h0c5.43,1,11.64,1.71,17.55,1.39,5.91-.33,11.57-1.66,15.88-4.78,4.31-3.12,7.35-8.07,9.5-13.59,2.15-5.52,3.43-11.63,4.17-17.1.3-2.25,2.23-3.98,4.54-4.73l.1-.02Z"/>
    <path class="st25" d="M139.96,145.81c.18-.13.43-.13.62,0,.18.13.26.37.19.59l-35.59,108.77c-.09.27-.39.42-.66.34-2.31-.75-4.23-2.5-4.53-4.74l-.14-1.03c-.7-4.86-1.81-10.16-3.58-15.05l-.39-1.04c-2.13-5.51-5.15-10.49-9.45-13.62-4.3-3.13-9.95-4.5-15.86-4.84-5.92-.34-12.13.34-17.56,1.32-2.22.4-4.48-.89-5.9-2.86-.15-.21-.13-.5.06-.68h.01s.04-.05.06-.06l92.72-67.08Z"/>
    <path class="st24" d="M140.25,145.72c.14,0,.27.06.37.16.1.1.15.23.15.37h0c0,.18-.08.33-.22.43l-92.72,67.08c-.23.17-.56.12-.73-.12-1.43-1.97-1.95-4.5-.88-6.49,2.62-4.87,5.2-10.54,6.74-16.27,1.52-5.72,2-11.51.36-16.57-1.64-5.06-5.41-9.49-9.99-13.24-4.59-3.76-10-6.85-14.98-9.26h0c-2.04-1-3.08-3.36-3.08-5.79,0-.14.06-.27.15-.37.1-.1.23-.15.37-.15l114.45.22Z"/>
    <path class="st20" d="M212.43,267.24c10.78.13,19.63-8.5,19.77-19.29s-8.5-19.64-19.29-19.77c-10.79-.13-19.64,8.5-19.77,19.29s8.5,19.63,19.29,19.77Z"/>
    <path class="st18" d="M213.77,269.38c10.98.13,20-8.66,20.13-19.65s-8.66-20-19.65-20.13-20,8.66-20.13,19.65,8.66,20,19.65,20.13Z"/>
    <path class="st3" d="M20.13,126.28c10.98.13,20-8.66,20.13-19.65s-8.66-20-19.65-20.13c-10.98-.13-20,8.66-20.13,19.65-.13,10.99,8.66,20,19.65,20.13Z"/>
    <path class="st28" d="M66.28,64.59c10.98.13,20-8.66,20.13-19.65.13-10.99-8.66-20-19.65-20.13-10.98-.13-20,8.66-20.13,19.65-.13,10.99,8.66,20,19.65,20.13Z"/>
    <path class="st30" d="M141.63,39.79c10.99.13,20-8.66,20.13-19.65S153.1.15,142.11.01s-20,8.66-20.13,19.65,8.66,20,19.65,20.13Z"/>
    <path class="st31" d="M214.73,65.05c10.98.13,20-8.66,20.13-19.65s-8.66-20-19.65-20.13-20,8.66-20.13,19.65c-.13,10.98,8.66,20,19.65,20.13Z"/>
    <path class="st11" d="M260.28,127.86c10.98.13,20-8.66,20.13-19.65.13-10.99-8.66-20-19.65-20.13s-20,8.66-20.13,19.65,8.66,20,19.65,20.13Z"/>
    <path class="st14" d="M259.91,206.34c10.98.13,20-8.66,20.13-19.65s-8.66-20-19.65-20.13-20,8.66-20.13,19.65c-.13,10.98,8.66,20,19.65,20.13Z"/>
    <path class="st4" d="M138.53,292.28c10.99.13,20-8.66,20.13-19.65s-8.66-20-19.65-20.13c-10.99-.13-20,8.66-20.13,19.65s8.66,20,19.65,20.13Z"/>
    <path class="st29" d="M65.27,267.56c10.98.13,20-8.66,20.13-19.65.13-10.99-8.66-20-19.65-20.13s-20,8.66-20.13,19.65c-.13,10.98,8.66,20,19.65,20.13Z"/>
    <path class="st16" d="M19.73,203.4c10.98.13,20-8.66,20.13-19.65s-8.66-20-19.65-20.13S.22,172.28.09,183.26s8.66,20,19.65,20.13Z"/>
  </g>
  <g>
    <path class="st5" d="M603.89,197.7l1.69-4.12-22.68-57.1c-1.4-3.28-2.09-5.67-2.09-7.15,0-1.57.41-3.04,1.21-4.39.81-1.35,1.91-2.43,3.31-3.24,1.44-.81,2.93-1.21,4.46-1.21,2.65,0,4.66.85,6.01,2.56,1.35,1.66,2.54,4.07,3.58,7.22l15.59,45.35,14.78-42.18c1.17-3.42,2.23-6.1,3.17-8.03.94-1.93,1.93-3.24,2.97-3.91,1.08-.67,2.59-1.01,4.52-1.01,1.4,0,2.72.38,3.98,1.15,1.3.72,2.29,1.71,2.97,2.97.72,1.26,1.08,2.59,1.08,3.98-.18.85-.47,2.07-.88,3.64-.4,1.57-.9,3.17-1.48,4.79l-24.03,62.9c-2.07,5.53-4.1,9.88-6.07,13.03-1.98,3.15-4.61,5.56-7.9,7.22-3.24,1.71-7.63,2.56-13.16,2.56s-9.45-.58-12.15-1.75c-2.7-1.17-4.05-3.31-4.05-6.41,0-2.11.63-3.76,1.89-4.93,1.3-1.12,3.22-1.69,5.74-1.69.99,0,1.96.13,2.9.4,1.17.27,2.18.4,3.04.4,2.11,0,3.78-.32,4.99-.95,1.21-.63,2.29-1.73,3.24-3.31.99-1.53,2.11-3.8,3.37-6.82Z"/>
    <path class="st5" d="M560.05,185.01c-4.45,3.47-8.77,6.07-12.96,7.83-4.14,1.71-8.8,2.57-13.97,2.57-4.72,0-8.89-.92-12.49-2.77-3.55-1.89-6.3-4.43-8.23-7.63-1.93-3.19-2.9-6.66-2.9-10.39,0-5.04,1.6-9.34,4.79-12.89,3.19-3.55,7.58-5.94,13.16-7.15,1.17-.27,4.07-.88,8.71-1.82,4.63-.94,8.59-1.8,11.88-2.56,3.33-.81,6.93-1.78,10.8-2.9-.23-4.86-1.22-8.41-2.97-10.66-1.71-2.29-5.29-3.44-10.73-3.44-4.68,0-8.21.65-10.6,1.96-2.34,1.3-4.36,3.26-6.07,5.87-1.67,2.61-2.86,4.34-3.58,5.2-.67.81-2.16,1.21-4.46,1.21-2.07,0-3.87-.65-5.4-1.96-1.48-1.35-2.23-3.06-2.23-5.13,0-3.24,1.15-6.39,3.44-9.45,2.29-3.06,5.87-5.58,10.73-7.56,4.86-1.98,10.91-2.97,18.15-2.97,8.1,0,14.47.97,19.1,2.9,4.63,1.89,7.9,4.9,9.79,9.04,1.93,4.14,2.9,9.63,2.9,16.47,0,4.32-.02,7.99-.07,11,0,3.01-.02,6.37-.07,10.06,0,3.46.56,7.09,1.69,10.87,1.17,3.73,1.76,6.14,1.76,7.22,0,1.89-.9,3.62-2.7,5.2-1.76,1.53-3.76,2.3-6.01,2.3-1.89,0-3.76-.88-5.6-2.63-1.84-1.8-3.8-4.39-5.87-7.76ZM558.84,158.35c-2.7.99-6.64,2.05-11.81,3.17-5.13,1.08-8.68,1.89-10.66,2.43-1.98.49-3.87,1.51-5.67,3.04-1.8,1.48-2.7,3.58-2.7,6.28s1.06,5.17,3.17,7.15c2.11,1.93,4.88,2.9,8.3,2.9,3.64,0,7-.79,10.06-2.36,3.11-1.62,5.38-3.69,6.82-6.21,1.66-2.79,2.5-7.38,2.5-13.77v-2.63Z"/>
    <path class="st5" d="M482.87,184.2v-79.91c0-3.69.81-6.48,2.43-8.37,1.67-1.89,3.89-2.83,6.68-2.83s5.04.94,6.75,2.83c1.71,1.84,2.56,4.63,2.56,8.37v79.91c0,3.74-.88,6.55-2.63,8.44-1.71,1.84-3.94,2.77-6.68,2.77s-4.9-.97-6.61-2.9c-1.67-1.94-2.5-4.7-2.5-8.3Z"/>
    <path class="st5" d="M459.01,162.47h-36.04c.05,4.18.88,7.87,2.5,11.07,1.67,3.19,3.85,5.6,6.55,7.22,2.74,1.62,5.76,2.43,9.04,2.43,2.21,0,4.21-.25,6.01-.74,1.84-.54,3.62-1.35,5.33-2.43,1.71-1.12,3.29-2.32,4.73-3.58,1.44-1.26,3.31-2.97,5.6-5.13.95-.81,2.3-1.22,4.05-1.22,1.89,0,3.42.52,4.59,1.55,1.17,1.04,1.76,2.5,1.76,4.39,0,1.67-.65,3.62-1.96,5.87-1.31,2.2-3.29,4.34-5.94,6.41-2.61,2.03-5.92,3.71-9.92,5.06-3.96,1.35-8.53,2.03-13.7,2.03-11.83,0-21.03-3.38-27.6-10.12s-9.85-15.9-9.85-27.47c0-5.44.81-10.48,2.43-15.12,1.62-4.68,3.98-8.68,7.09-12.01,3.11-3.33,6.93-5.87,11.47-7.63,4.54-1.8,9.58-2.7,15.12-2.7,7.2,0,13.36,1.53,18.49,4.59,5.17,3.01,9.04,6.93,11.61,11.74,2.56,4.81,3.85,9.72,3.85,14.71,0,4.63-1.33,7.65-3.98,9.04-2.65,1.35-6.39,2.02-11.2,2.02ZM422.97,152.01h33.41c-.45-6.3-2.16-11-5.13-14.11-2.92-3.15-6.79-4.72-11.61-4.72s-8.37,1.6-11.34,4.79c-2.92,3.15-4.7,7.83-5.33,14.04Z"/>
    <path class="st5" d="M346.73,151.4h-7.02v31.79c0,4.18-.92,7.27-2.77,9.25-1.85,1.98-4.25,2.97-7.22,2.97-3.2,0-5.67-1.04-7.42-3.1-1.76-2.07-2.63-5.11-2.63-9.11v-76.13c0-4.32.97-7.45,2.9-9.38,1.93-1.93,5.06-2.9,9.38-2.9h32.6c4.5,0,8.35.2,11.54.61,3.19.36,6.07,1.12,8.64,2.29,3.1,1.3,5.85,3.17,8.23,5.6,2.39,2.43,4.18,5.26,5.4,8.5,1.26,3.19,1.89,6.59,1.89,10.19,0,7.38-2.09,13.27-6.28,17.68-4.14,4.41-10.44,7.54-18.9,9.38,3.55,1.89,6.95,4.68,10.19,8.37,3.24,3.69,6.12,7.63,8.64,11.81,2.57,4.14,4.54,7.9,5.94,11.27,1.44,3.33,2.16,5.62,2.16,6.88s-.43,2.61-1.28,3.91c-.81,1.26-1.93,2.25-3.38,2.97-1.44.76-3.1,1.15-4.99,1.15-2.25,0-4.14-.54-5.67-1.62-1.53-1.04-2.86-2.36-3.98-3.98-1.08-1.62-2.57-4-4.45-7.15l-8.03-13.36c-2.88-4.9-5.47-8.64-7.76-11.2-2.25-2.56-4.54-4.32-6.88-5.26-2.34-.94-5.29-1.42-8.84-1.42ZM358.2,109.83h-18.49v27.2h17.95c4.82,0,8.86-.4,12.15-1.21,3.29-.85,5.78-2.27,7.49-4.25,1.75-2.02,2.63-4.79,2.63-8.3,0-2.74-.7-5.15-2.09-7.22-1.39-2.11-3.33-3.69-5.8-4.72-2.34-.99-6.95-1.48-13.84-1.48Z"/>
  </g>
  <g>
    <path class="st5" d="M1089.79,168.81v15.39c0,3.73-.88,6.55-2.63,8.44-1.76,1.85-3.98,2.77-6.68,2.77s-4.84-.94-6.55-2.83c-1.71-1.89-2.57-4.68-2.57-8.37v-51.29c0-8.28,2.99-12.42,8.98-12.42,3.06,0,5.27.97,6.61,2.9,1.35,1.94,2.09,4.79,2.23,8.57,2.2-3.78,4.45-6.64,6.75-8.57,2.34-1.93,5.44-2.9,9.31-2.9s7.63.97,11.27,2.9c3.64,1.94,5.47,4.5,5.47,7.69,0,2.25-.79,4.12-2.36,5.6-1.53,1.44-3.19,2.16-4.99,2.16-.68,0-2.32-.4-4.93-1.21-2.56-.85-4.84-1.28-6.82-1.28-2.7,0-4.9.72-6.61,2.16-1.71,1.39-3.04,3.49-3.98,6.28-.95,2.79-1.6,6.12-1.96,9.99-.36,3.82-.54,8.5-.54,14.04Z"/>
    <path class="st5" d="M1047.63,162.47h-36.04c.04,4.18.88,7.87,2.5,11.07,1.66,3.2,3.85,5.6,6.55,7.22,2.74,1.62,5.76,2.43,9.04,2.43,2.21,0,4.21-.25,6.01-.74,1.84-.54,3.62-1.35,5.33-2.43,1.71-1.12,3.29-2.32,4.73-3.58,1.44-1.26,3.31-2.97,5.6-5.13.95-.81,2.3-1.22,4.05-1.22,1.89,0,3.42.52,4.59,1.55,1.17,1.04,1.76,2.5,1.76,4.39,0,1.66-.65,3.62-1.96,5.87-1.3,2.2-3.28,4.34-5.94,6.41-2.61,2.02-5.92,3.71-9.92,5.06-3.96,1.35-8.53,2.02-13.7,2.02-11.83,0-21.03-3.38-27.6-10.12-6.57-6.75-9.85-15.9-9.85-27.47,0-5.44.81-10.48,2.43-15.12,1.62-4.68,3.98-8.68,7.09-12.01,3.11-3.33,6.93-5.87,11.47-7.63,4.54-1.8,9.58-2.7,15.12-2.7,7.2,0,13.36,1.53,18.49,4.59,5.18,3.01,9.04,6.93,11.61,11.74,2.56,4.81,3.85,9.72,3.85,14.71,0,4.63-1.33,7.65-3.98,9.04-2.65,1.35-6.39,2.03-11.2,2.03ZM1011.59,152.01h33.41c-.45-6.3-2.16-11-5.13-14.11-2.92-3.15-6.79-4.72-11.61-4.72s-8.37,1.6-11.34,4.79c-2.92,3.15-4.7,7.83-5.33,14.04Z"/>
    <path class="st5" d="M967.21,184.87v-1.82c-2.48,2.83-4.93,5.15-7.36,6.95-2.38,1.75-4.99,3.08-7.83,3.98-2.79.94-5.85,1.42-9.18,1.42-4.41,0-8.5-.92-12.28-2.77-3.73-1.89-6.97-4.57-9.72-8.03-2.74-3.47-4.84-7.54-6.28-12.22-1.4-4.68-2.09-9.74-2.09-15.18,0-11.52,2.81-20.49,8.44-26.93,5.62-6.43,13.03-9.65,22.2-9.65,5.31,0,9.79.92,13.43,2.77,3.64,1.8,7.2,4.59,10.66,8.37v-27.2c0-3.78.74-6.64,2.23-8.57,1.53-1.93,3.69-2.9,6.48-2.9s4.93.9,6.41,2.7c1.53,1.76,2.29,4.37,2.29,7.83v81.26c0,3.51-.81,6.14-2.43,7.9-1.62,1.75-3.71,2.63-6.28,2.63s-4.61-.9-6.28-2.7c-1.62-1.84-2.43-4.45-2.43-7.83ZM930.97,157.81c0,4.99.77,9.25,2.29,12.76,1.57,3.51,3.71,6.16,6.41,7.96,2.7,1.76,5.65,2.63,8.84,2.63s6.19-.83,8.84-2.5c2.7-1.71,4.84-4.3,6.41-7.76,1.62-3.51,2.43-7.87,2.43-13.09,0-4.9-.81-9.11-2.43-12.62-1.58-3.55-3.73-6.25-6.48-8.1-2.7-1.89-5.67-2.83-8.91-2.83s-6.39.97-9.04,2.9c-2.65,1.89-4.72,4.64-6.21,8.23-1.44,3.55-2.16,7.69-2.16,12.42Z"/>
    <path class="st5" d="M856.83,130.68v2.23c3.24-4.27,6.77-7.4,10.6-9.38,3.87-2.03,8.3-3.04,13.3-3.04s9.2,1.06,13.03,3.17c3.82,2.12,6.68,5.11,8.57,8.98,1.21,2.25,2,4.68,2.36,7.29s.54,5.94.54,9.99v34.29c0,3.69-.85,6.48-2.56,8.37-1.67,1.89-3.85,2.83-6.55,2.83s-4.97-.97-6.68-2.9c-1.71-1.93-2.57-4.7-2.57-8.3v-30.71c0-6.07-.85-10.71-2.57-13.9-1.66-3.24-5.02-4.86-10.05-4.86-3.28,0-6.28.99-8.98,2.97-2.7,1.93-4.68,4.61-5.94,8.03-.9,2.75-1.35,7.87-1.35,15.39v23.08c0,3.73-.88,6.55-2.63,8.44-1.71,1.85-3.94,2.77-6.68,2.77s-4.84-.97-6.55-2.9c-1.71-1.93-2.56-4.7-2.56-8.3v-53.25c0-3.51.77-6.12,2.3-7.83,1.53-1.76,3.62-2.63,6.28-2.63,1.62,0,3.08.38,4.39,1.15s2.34,1.91,3.1,3.44c.81,1.53,1.21,3.4,1.21,5.6Z"/>
    <path class="st5" d="M811.3,185.01v-2.36c-2.2,2.79-4.52,5.13-6.95,7.02-2.43,1.89-5.08,3.28-7.96,4.18-2.88.95-6.16,1.42-9.85,1.42-4.45,0-8.46-.92-12.01-2.77-3.51-1.84-6.23-4.39-8.17-7.63-2.29-3.91-3.44-9.54-3.44-16.87v-36.51c0-3.69.83-6.43,2.5-8.23,1.66-1.85,3.87-2.77,6.61-2.77s5.04.92,6.75,2.77c1.71,1.85,2.56,4.59,2.56,8.23v29.49c0,4.27.36,7.87,1.08,10.8.72,2.88,2,5.15,3.85,6.82,1.89,1.62,4.43,2.43,7.63,2.43s6.03-.92,8.77-2.77c2.74-1.85,4.75-4.25,6.01-7.22,1.04-2.61,1.55-8.32,1.55-17.14v-22.41c0-3.65.86-6.39,2.57-8.23,1.71-1.85,3.94-2.77,6.68-2.77s4.95.92,6.61,2.77c1.67,1.8,2.5,4.54,2.5,8.23v53.38c0,3.51-.81,6.14-2.43,7.9-1.58,1.76-3.62,2.63-6.14,2.63s-4.61-.9-6.28-2.7c-1.62-1.85-2.43-4.41-2.43-7.69Z"/>
    <path class="st5" d="M747.21,110.23h-39.48v25.31h33c3.06,0,5.33.7,6.82,2.09,1.53,1.35,2.29,3.17,2.29,5.47s-.76,4.12-2.29,5.47c-1.53,1.35-3.8,2.02-6.82,2.02h-33v32.6c0,4.14-.95,7.22-2.84,9.25-1.84,1.98-4.23,2.97-7.15,2.97s-5.4-1.01-7.29-3.04c-1.85-2.02-2.77-5.08-2.77-9.18v-76.13c0-2.88.43-5.22,1.28-7.02.86-1.85,2.18-3.17,3.98-3.98,1.85-.85,4.18-1.28,7.02-1.28h47.24c3.2,0,5.56.72,7.09,2.16,1.58,1.4,2.36,3.24,2.36,5.53s-.79,4.23-2.36,5.67c-1.53,1.39-3.89,2.09-7.09,2.09Z"/>
  </g>
  <g>
    <path class="st21" d="M250.46,140.41h-97.14c.44.98.78,2.01.98,3.09.18.93.27,1.9.26,2.89-.01.99-.12,1.95-.33,2.88l4.35,3.14h91.88c3.31,0,6-2.69,6-6s-2.69-6-6-6Z"/>
    <path class="st23" d="M126.22,148.99c-.19-.96-.28-1.94-.27-2.96,0-.77.1-1.51.22-2.25l-4.68-3.38H29.61c-3.31,0-6,2.69-6,6s2.69,6,6,6h97.76c-.52-1.07-.92-2.22-1.15-3.42Z"/>
    <path class="st22" d="M130.39,156.56c-1.24-1.18-2.27-2.59-3.02-4.15h-5.88l-74.47,53.82c-2.69,1.94-3.29,5.69-1.35,8.38,1.17,1.62,3.01,2.49,4.87,2.49,1.22,0,2.45-.37,3.51-1.14l74.52-53.85,4.7-3.4c-1.05-.59-2.01-1.32-2.88-2.15Z"/>
    <path class="st9" d="M234.4,78.21c-1.94-2.69-5.69-3.29-8.38-1.35l-74.51,53.85-4.21,3.04c.94.53,1.8,1.17,2.59,1.89,1.45,1.33,2.63,2.94,3.44,4.76h5.26l74.47-53.82c2.69-1.94,3.29-5.69,1.35-8.38Z"/>
    <path class="st7" d="M233.05,206.22l-74.47-53.82-4.35-3.14c-.24,1.1-.62,2.15-1.1,3.14-.82,1.7-1.96,3.21-3.35,4.45l1.72,5.24,74.52,53.85c1.06.77,2.29,1.14,3.51,1.14,1.86,0,3.69-.86,4.87-2.49,1.94-2.69,1.34-6.44-1.35-8.38Z"/>
    <path class="st0" d="M128.57,130.72l-74.52-53.85c-2.69-1.94-6.44-1.34-8.38,1.35-1.94,2.69-1.34,6.44,1.35,8.38l74.47,53.82,4.68,3.38c.2-1.18.53-2.32,1.01-3.38.75-1.68,1.81-3.2,3.11-4.46l-1.72-5.23Z"/>
    <path class="st12" d="M140.87,159.73c-.6,0-1.19-.06-1.77-.14-1.81-.25-3.51-.82-5.04-1.68l-4.7,3.4-28.69,87.35c-1.03,3.15.68,6.54,3.83,7.57.62.2,1.25.3,1.87.3,2.52,0,4.87-1.6,5.7-4.13l28.76-87.56,1.71-5.2c-.55.06-1.1.09-1.67.08Z"/>
    <path class="st26" d="M176.37,35.8c-3.15-1.04-6.54.68-7.57,3.83l-28.76,87.56-1.59,4.85c.65-.08,1.31-.14,1.99-.13.4,0,.79.04,1.18.07,2.05.19,6.57,2.71,8.27,3.67l1.62-4.93,28.69-87.35c1.03-3.15-.68-6.54-3.83-7.57Z"/>
    <path class="st2" d="M180.2,249.45l-28.69-87.35-1.72-5.24c-.85.76-1.78,1.43-2.8,1.97-1.59.85-3.37,1.41-5.24,1.6l-1.71,5.2,28.76,87.56c.83,2.53,3.18,4.13,5.7,4.13.62,0,1.25-.1,1.87-.3,3.15-1.03,4.86-4.42,3.83-7.57Z"/>
    <path class="st15" d="M111.28,39.63c-1.03-3.15-4.42-4.87-7.57-3.83-3.15,1.03-4.86,4.42-3.83,7.57l28.69,87.35,1.72,5.23c.81-.79,1.72-1.46,2.69-2.04,1.64-.97,3.49-1.62,5.47-1.87l1.59-4.85-28.76-87.56Z"/>
    <path class="st5" d="M154.31,143.5c-.21-1.08-.55-2.11-.98-3.09-.81-1.82-1.98-3.43-3.44-4.76-.79-.72-1.65-1.36-2.59-1.89-1.71-.97-3.63-1.59-5.69-1.78-.39-.04-.78-.07-1.18-.07-.67,0-1.33.05-1.99.13-1.98.25-3.82.9-5.47,1.87-.98.58-1.88,1.26-2.69,2.04-1.3,1.27-2.36,2.78-3.11,4.46-.47,1.06-.8,2.2-1.01,3.38-.13.73-.21,1.48-.22,2.25-.01,1.01.08,2,.27,2.96.24,1.2.63,2.34,1.15,3.42.75,1.56,1.78,2.96,3.02,4.15.87.83,1.83,1.56,2.88,2.15,1.53.86,3.23,1.43,5.04,1.68.58.08,1.17.14,1.77.14.56,0,1.12-.03,1.67-.08,1.88-.19,3.65-.75,5.24-1.6,1.01-.54,1.95-1.21,2.8-1.97,1.39-1.24,2.53-2.75,3.35-4.45.48-.99.86-2.04,1.1-3.14.2-.93.31-1.89.33-2.88.01-.99-.08-1.95-.26-2.89Z"/>
  </g>
</svg>