<?xml version="1.0" encoding="UTF-8"?>
<svg width="280.32" height="292.27" version="1.1" viewBox="0 0 280.32 292.27" xmlns="http://www.w3.org/2000/svg" xmlns:xlink="http://www.w3.org/1999/xlink">
 <!-- Generator: Adobe Illustrator 29.8.2, SVG Export Plug-In . SVG Version: 2.1.1 Build 3)  -->
 <defs>
  <style>.st0 {
        fill: url(#Degradado_sin_nombre_398);
      }

      .st1 {
        fill: url(#Degradado_sin_nombre_406);
      }

      .st2 {
        fill: url(#Degradado_sin_nombre_395);
      }

      .st3 {
        fill: url(#Degradado_sin_nombre_4121);
      }

      .st4 {
        fill: url(#Degradado_sin_nombre_4061);
      }

      .st5 {
        fill: #fff;
      }

      .st6 {
        fill: url(#Degradado_sin_nombre_407);
      }

      .st7 {
        fill: url(#Degradado_sin_nombre_399);
      }

      .st8 {
        fill: url(#Degradado_sin_nombre_408);
      }

      .st9 {
        fill: url(#Degradado_sin_nombre_400);
      }

      .st10 {
        fill: url(#Degradado_sin_nombre_409);
      }

      .st11 {
        fill: url(#Degradado_sin_nombre_4081);
      }

      .st12 {
        fill: url(#Degradado_sin_nombre_397);
      }

      .st13 {
        fill: url(#Degradado_sin_nombre_411);
      }

      .st14 {
        fill: #043029;
      }

      .st15 {
        fill: url(#Degradado_sin_nombre_4071);
      }

      .st16 {
        fill: url(#Degradado_sin_nombre_394);
      }

      .st17 {
        fill: url(#Degradado_sin_nombre_4041);
      }

      .st18 {
        fill: url(#Degradado_sin_nombre_410);
      }

      .st19 {
        fill: url(#Degradado_sin_nombre_4131);
      }

      .st20 {
        fill: url(#Degradado_sin_nombre_412);
      }

      .st21 {
        fill: #642dd2;
      }

      .st22 {
        fill: url(#Degradado_sin_nombre_403);
      }

      .st23 {
        fill: #043029;
      }

      .st24 {
        fill: url(#Degradado_sin_nombre_401);
      }

      .st25 {
        fill: url(#Degradado_sin_nombre_402);
      }

      .st26 {
        fill: url(#Degradado_sin_nombre_404);
      }

      .st27 {
        fill: url(#Degradado_sin_nombre_405);
      }

      .st28 {
        fill: url(#Degradado_sin_nombre_396);
      }

      .st29 {
        fill: url(#Degradado_sin_nombre_413);
      }

      .st30 {
        fill: url(#Degradado_sin_nombre_4111);
      }

      .st31 {
        fill: url(#Degradado_sin_nombre_4051);
      }

      .st32 {
        fill: url(#Degradado_sin_nombre_4101);
      }

      .st33 {
        fill: url(#Degradado_sin_nombre_4091);
      }</style>
  <linearGradient id="Degradado_sin_nombre_410" x1="140.48" x2="140.48" y1="14.65" y2="109.4" data-name="Degradado sin nombre 410" gradientUnits="userSpaceOnUse">
   <stop stop-color="#ffc01f" offset="0"/>
   <stop stop-color="#fbae2c" offset="1"/>
  </linearGradient>
  <linearGradient id="Degradado_sin_nombre_409" x1="222.11" x2="143.38" y1="36.68" y2="132.9" data-name="Degradado sin nombre 409" gradientUnits="userSpaceOnUse">
   <stop stop-color="#fd52c8" offset="0"/>
   <stop stop-color="#b449d8" offset="1"/>
  </linearGradient>
  <linearGradient id="Degradado_sin_nombre_408" x1="269.91" x2="152.23" y1="106.29" y2="135.71" data-name="Degradado sin nombre 408" gradientUnits="userSpaceOnUse">
   <stop stop-color="#af55da" offset="0"/>
   <stop stop-color="#874bde" offset="1"/>
  </linearGradient>
  <linearGradient id="Degradado_sin_nombre_406" x1="140.03" x2="140.03" y1="173.69" y2="282.63" data-name="Degradado sin nombre 406" gradientUnits="userSpaceOnUse">
   <stop stop-color="#5e45d3" offset="0"/>
   <stop stop-color="#6555d6" offset="1"/>
  </linearGradient>
  <linearGradient id="Degradado_sin_nombre_413" x1="163.22" x2="224.44" y1="182.47" y2="260.39" data-name="Degradado sin nombre 413" gradientUnits="userSpaceOnUse">
   <stop stop-color="#6142d5" offset="0"/>
   <stop stop-color="#5b46d1" offset="1"/>
  </linearGradient>
  <linearGradient id="Degradado_sin_nombre_407" x1="165.5" x2="283.44" y1="179.97" y2="179.97" data-name="Degradado sin nombre 407" gradientUnits="userSpaceOnUse">
   <stop stop-color="#683fcf" offset="0"/>
   <stop stop-color="#6441d7" offset="1"/>
  </linearGradient>
  <linearGradient id="Degradado_sin_nombre_412" x1="1.66" x2="119.34" y1="96.5" y2="149.77" data-name="Degradado sin nombre 412" gradientUnits="userSpaceOnUse">
   <stop stop-color="#37cba1" offset="0"/>
   <stop stop-color="#14baa2" offset="1"/>
  </linearGradient>
  <linearGradient id="Degradado_sin_nombre_411" x1="54.41" x2="129.95" y1="26.49" y2="134.64" data-name="Degradado sin nombre 411" gradientUnits="userSpaceOnUse">
   <stop stop-color="#33cb7c" offset="0"/>
   <stop stop-color="#22ba98" offset="1"/>
  </linearGradient>
  <linearGradient id="Degradado_sin_nombre_405" x1="141.93" x2="58.43" y1="147.66" y2="257.4" data-name="Degradado sin nombre 405" gradientUnits="userSpaceOnUse">
   <stop stop-color="#3073a8" offset="0"/>
   <stop stop-color="#5c67d5" offset="1"/>
  </linearGradient>
  <linearGradient id="Degradado_sin_nombre_404" x1="3.25" x2="122.52" y1="194.16" y2="142.48" data-name="Degradado sin nombre 404" gradientUnits="userSpaceOnUse">
   <stop stop-color="#219ba5" offset="0"/>
   <stop stop-color="#288ba2" offset="1"/>
  </linearGradient>
  <linearGradient id="Degradado_sin_nombre_4131" x1="161.84" x2="222.54" y1="183.08" y2="260.34" data-name="Degradado sin nombre 413" xlink:href="#Degradado_sin_nombre_413"/>
  <linearGradient id="Degradado_sin_nombre_4121" x1="2.24" x2="118.92" y1="98.18" y2="151" data-name="Degradado sin nombre 412" xlink:href="#Degradado_sin_nombre_412"/>
  <linearGradient id="Degradado_sin_nombre_4111" x1="54.73" x2="129.62" y1="27.81" y2="135.03" data-name="Degradado sin nombre 411" xlink:href="#Degradado_sin_nombre_411"/>
  <linearGradient id="Degradado_sin_nombre_4101" x1="141.87" x2="141.87" y1="15.79" y2="109.72" data-name="Degradado sin nombre 410" xlink:href="#Degradado_sin_nombre_410"/>
  <linearGradient id="Degradado_sin_nombre_4091" x1="221.24" x2="143.2" y1="37.5" y2="132.88" data-name="Degradado sin nombre 409" xlink:href="#Degradado_sin_nombre_409"/>
  <linearGradient id="Degradado_sin_nombre_4081" x1="268.62" x2="151.95" y1="105.94" y2="135.11" data-name="Degradado sin nombre 408" xlink:href="#Degradado_sin_nombre_408"/>
  <linearGradient id="Degradado_sin_nombre_4071" x1="165.28" x2="282.21" y1="186.45" y2="186.45" data-name="Degradado sin nombre 407" xlink:href="#Degradado_sin_nombre_407"/>
  <linearGradient id="Degradado_sin_nombre_4061" x1="138.78" x2="138.78" y1="173.45" y2="281.45" data-name="Degradado sin nombre 406" xlink:href="#Degradado_sin_nombre_406"/>
  <linearGradient id="Degradado_sin_nombre_4051" x1="141.73" x2="58.95" y1="147.51" y2="256.3" data-name="Degradado sin nombre 405" xlink:href="#Degradado_sin_nombre_405"/>
  <linearGradient id="Degradado_sin_nombre_4041" x1="3.15" x2="121.4" y1="190.8" y2="139.56" data-name="Degradado sin nombre 404" xlink:href="#Degradado_sin_nombre_404"/>
  <linearGradient id="Degradado_sin_nombre_403" x1="153.32" x2="256.46" y1="146.41" y2="146.41" data-name="Degradado sin nombre 403" gradientUnits="userSpaceOnUse">
   <stop stop-color="#a465e3" offset="0"/>
   <stop stop-color="#8b53d7" offset="1"/>
  </linearGradient>
  <linearGradient id="Degradado_sin_nombre_402" x1="23.61" x2="127.37" y1="146.41" y2="146.41" data-name="Degradado sin nombre 402" gradientUnits="userSpaceOnUse">
   <stop stop-color="#20baa7" offset="0"/>
   <stop stop-color="#28bea8" offset="1"/>
  </linearGradient>
  <linearGradient id="Degradado_sin_nombre_401" x1="48.06" x2="125.31" y1="214.24" y2="155.91" data-name="Degradado sin nombre 401" gradientUnits="userSpaceOnUse">
   <stop stop-color="#449caf" offset="0"/>
   <stop stop-color="#46acb4" offset=".29"/>
   <stop stop-color="#47b7b8" offset=".63"/>
   <stop stop-color="#48bbba" offset="1"/>
  </linearGradient>
  <linearGradient id="Degradado_sin_nombre_400" x1="229.46" x2="154.83" y1="81.68" y2="135.81" data-name="Degradado sin nombre 400" gradientUnits="userSpaceOnUse">
   <stop stop-color="#ff4ab5" offset="0"/>
   <stop stop-color="#fb4ab6" offset=".31"/>
   <stop stop-color="#f14dba" offset=".58"/>
   <stop stop-color="#e050c2" offset=".82"/>
   <stop stop-color="#ce55ca" offset="1"/>
  </linearGradient>
  <linearGradient id="Degradado_sin_nombre_399" x1="157.13" x2="227.82" y1="158.42" y2="210.19" data-name="Degradado sin nombre 399" gradientUnits="userSpaceOnUse">
   <stop stop-color="#7a56d7" offset="0"/>
   <stop stop-color="#974ed3" offset="1"/>
  </linearGradient>
  <linearGradient id="Degradado_sin_nombre_398" x1="49.55" x2="126.28" y1="80.36" y2="137.12" data-name="Degradado sin nombre 398" gradientUnits="userSpaceOnUse">
   <stop stop-color="#82e1a2" offset="0"/>
   <stop stop-color="#6bcc95" offset="1"/>
  </linearGradient>
  <linearGradient id="Degradado_sin_nombre_397" x1="108.64" x2="134.65" y1="242.35" y2="165.89" data-name="Degradado sin nombre 397" gradientUnits="userSpaceOnUse">
   <stop stop-color="#a45dce" offset="0"/>
   <stop stop-color="#925fdd" offset="1"/>
  </linearGradient>
  <linearGradient id="Degradado_sin_nombre_396" x1="148.08" x2="171.99" y1="127.56" y2="42.81" data-name="Degradado sin nombre 396" gradientUnits="userSpaceOnUse">
   <stop stop-color="#ffd778" offset="0"/>
   <stop stop-color="#ffd65f" offset=".14"/>
   <stop stop-color="#ffd436" offset=".4"/>
   <stop stop-color="#ffd319" offset=".64"/>
   <stop stop-color="#ffd307" offset=".85"/>
   <stop stop-color="#ffd301" offset="1"/>
  </linearGradient>
  <linearGradient id="Degradado_sin_nombre_395" x1="145.1" x2="175.58" y1="159.73" y2="256.78" data-name="Degradado sin nombre 395" gradientUnits="userSpaceOnUse">
   <stop stop-color="#c892eb" offset="0"/>
   <stop stop-color="#a263d7" offset="1"/>
  </linearGradient>
  <linearGradient id="Degradado_sin_nombre_394" x1="106.27" x2="133.6" y1="39.22" y2="131.19" data-name="Degradado sin nombre 394" gradientUnits="userSpaceOnUse">
   <stop stop-color="#ffdd8f" offset="0"/>
   <stop stop-color="#ffd96b" offset="1"/>
  </linearGradient>
  <linearGradient id="linearGradient680" x1="140.48" x2="140.48" y1="14.65" y2="109.4" gradientUnits="userSpaceOnUse" xlink:href="#Degradado_sin_nombre_410"/>
  <linearGradient id="linearGradient682" x1="222.11" x2="143.38" y1="36.68" y2="132.9" gradientUnits="userSpaceOnUse" xlink:href="#Degradado_sin_nombre_409"/>
  <linearGradient id="linearGradient684" x1="269.91" x2="152.23" y1="106.29" y2="135.71" gradientUnits="userSpaceOnUse" xlink:href="#Degradado_sin_nombre_408"/>
  <linearGradient id="linearGradient686" x1="140.03" x2="140.03" y1="173.69" y2="282.63" gradientUnits="userSpaceOnUse" xlink:href="#Degradado_sin_nombre_406"/>
  <linearGradient id="linearGradient688" x1="163.22" x2="224.44" y1="182.47" y2="260.39" gradientUnits="userSpaceOnUse" xlink:href="#Degradado_sin_nombre_413"/>
  <linearGradient id="linearGradient690" x1="165.5" x2="283.44" y1="179.97" y2="179.97" gradientUnits="userSpaceOnUse" xlink:href="#Degradado_sin_nombre_407"/>
  <linearGradient id="linearGradient692" x1="1.66" x2="119.34" y1="96.5" y2="149.77" gradientUnits="userSpaceOnUse" xlink:href="#Degradado_sin_nombre_412"/>
  <linearGradient id="linearGradient694" x1="54.41" x2="129.95" y1="26.49" y2="134.64" gradientUnits="userSpaceOnUse" xlink:href="#Degradado_sin_nombre_411"/>
  <linearGradient id="linearGradient696" x1="141.93" x2="58.43" y1="147.66" y2="257.4" gradientUnits="userSpaceOnUse" xlink:href="#Degradado_sin_nombre_405"/>
  <linearGradient id="linearGradient698" x1="3.25" x2="122.52" y1="194.16" y2="142.48" gradientUnits="userSpaceOnUse" xlink:href="#Degradado_sin_nombre_404"/>
 </defs>
 <g transform="translate(-.088576 -.0083524)">
  <path class="st18" d="m169.56 38.12c1.54-1.61 4.06-1.88 6.33-1.18h0.04c0.25 0.04 0.44 0.26 0.44 0.52 0 0.08-0.02 0.13-0.04 0.19l-35.58 108.74c-0.07 0.22-0.27 0.36-0.5 0.36s-0.43-0.15-0.5-0.36l-35.14-108.91c-0.09-0.28 0.06-0.57 0.34-0.66 2.31-0.75 4.89-0.47 6.45 1.17 3.81 4 8.42 8.22 13.39 11.44s10.34 5.46 15.65 5.47c5.33 0.01 10.69-2.21 15.68-5.4l0.93-0.61c4.63-3.12 8.92-7.04 12.5-10.78z" fill="url(#linearGradient680)"/>
  <path class="st10" d="m175.37 37.22c0.12-0.21 0.38-0.32 0.62-0.24 2.31 0.75 4.23 2.5 4.53 4.74l0.14 1.03c0.7 4.86 1.81 10.14 3.58 15.05l0.39 1.04c2.13 5.51 5.15 10.49 9.45 13.62 4.31 3.13 9.96 4.5 15.86 4.84 5.92 0.34 12.13-0.34 17.56-1.32 2.24-0.4 4.48 0.89 5.9 2.86 0.17 0.23 0.12 0.56-0.12 0.73l-92.71 67.07c-0.17 0.14-0.41 0.16-0.61 0.04-0.2-0.13-0.3-0.38-0.22-0.61l35.59-108.77 0.04-0.1z" fill="url(#linearGradient682)"/>
  <path class="st8" d="m232.66 78.73c0.23-0.17 0.56-0.12 0.73 0.12 1.43 1.97 1.95 4.5 0.88 6.49-2.62 4.87-5.21 10.54-6.74 16.27-1.52 5.72-2 11.51-0.36 16.57 1.63 5.06 5.41 9.49 9.99 13.24 4.59 3.76 10 6.85 14.98 9.26l0.19 0.1c1.91 1.05 2.89 3.33 2.89 5.68 0 0.3-0.24 0.53-0.53 0.53-0.04 0-0.08 0-0.11-0.01l-114.33-0.22c-0.23 0-0.43-0.15-0.5-0.36-0.07-0.22 0-0.45 0.19-0.59z" fill="url(#linearGradient684)"/>
  <path class="st1" d="m140.34 145.73c0.23 0.04 0.4 0.22 0.43 0.44l35.13 108.85c0.09 0.28-0.06 0.57-0.34 0.66-2.31 0.75-4.89 0.47-6.45-1.18-3.81-4-8.41-8.22-13.39-11.44-4.97-3.22-10.34-5.46-15.65-5.47-4.99-0.01-10.02 1.94-14.74 4.82l-0.94 0.59c-4.99 3.19-9.61 7.39-13.43 11.37-1.57 1.64-4.15 1.9-6.45 1.15-0.13-0.04-0.24-0.14-0.31-0.26-0.06-0.12-0.07-0.27-0.03-0.4l35.59-108.77c0.08-0.25 0.33-0.4 0.58-0.35z" fill="url(#linearGradient686)"/>
  <path class="st29" d="m140.26 145.72h0.08c0.11 0.03 0.21 0.08 0.29 0.16l92.37 67.4c0.11 0.08 0.19 0.21 0.21 0.34 0.02 0.14-0.01 0.28-0.1 0.39-1.44 1.96-3.68 3.24-5.91 2.83-5.43-1-11.64-1.7-17.55-1.39-5.91 0.33-11.57 1.66-15.88 4.78-4.04 2.92-6.96 7.46-9.09 12.56l-0.41 1.03c-2.15 5.52-3.43 11.63-4.17 17.1-0.3 2.25-2.23 3.97-4.54 4.72-0.13 0.04-0.28 0.03-0.4-0.03s-0.22-0.17-0.26-0.31l-35.11-108.81c-0.07-0.13-0.09-0.28-0.04-0.42 0.07-0.22 0.27-0.36 0.5-0.36h0.01z" fill="url(#linearGradient688)"/>
  <path class="st6" d="m254.81 145.97c0.24 0.05 0.42 0.26 0.42 0.51 0 2.43-1.06 4.79-3.11 5.77-4.98 2.38-10.42 5.46-15.02 9.2-4.59 3.73-8.38 8.14-10.04 13.19-1.65 5.06-1.2 10.85 0.3 16.58s4.06 11.43 6.67 16.29c1.07 2 0.53 4.54-0.9 6.5-0.17 0.23-0.5 0.28-0.73 0.11l-92.36-67.39c-0.06-0.03-0.11-0.06-0.15-0.1-0.1-0.1-0.15-0.24-0.15-0.38 0-0.21 0.11-0.39 0.29-0.48 0.11-0.06 0.23-0.07 0.35-0.04l114.33 0.22h0.11z" fill="url(#linearGradient690)"/>
  <path class="st20" d="m47.45 78.41c0.18-0.16 0.46-0.18 0.66-0.04l92.45 67.44c0.18 0.13 0.26 0.37 0.19 0.59s-0.27 0.36-0.5 0.36l-114.45-0.22c-0.29 0-0.52-0.24-0.52-0.52 0-2.43 1.06-4.79 3.11-5.77 4.98-2.38 10.42-5.46 15.02-9.2 4.59-3.73 8.38-8.14 10.03-13.19 1.65-5.06 1.2-10.85-0.3-16.58s-4.06-11.43-6.67-16.29c-1.07-2-0.53-4.54 0.9-6.5l0.07-0.08z" fill="url(#linearGradient692)"/>
  <path class="st13" d="m105.05 36.82c0.1-0.01 0.21 0 0.3 0.05 0.12 0.06 0.22 0.17 0.26 0.31l35.11 108.8c0.07 0.13 0.09 0.28 0.05 0.43-0.07 0.22-0.28 0.36-0.5 0.36h-0.01c-0.14 0-0.27-0.06-0.37-0.16l-92.38-67.39c-0.11-0.08-0.19-0.21-0.21-0.34-0.02-0.14 0.01-0.28 0.1-0.39 1.44-1.96 3.68-3.24 5.91-2.83 5.43 1 11.64 1.71 17.55 1.39 5.91-0.33 11.57-1.66 15.88-4.78s7.35-8.07 9.5-13.59 3.43-11.63 4.17-17.1c0.3-2.25 2.23-3.98 4.54-4.73l0.1-0.02z" fill="url(#linearGradient694)"/>
  <path class="st27" d="m139.96 145.81c0.18-0.13 0.43-0.13 0.62 0 0.18 0.13 0.26 0.37 0.19 0.59l-35.59 108.77c-0.09 0.27-0.39 0.42-0.66 0.34-2.31-0.75-4.23-2.5-4.53-4.74l-0.14-1.03c-0.7-4.86-1.81-10.16-3.58-15.05l-0.39-1.04c-2.13-5.51-5.15-10.49-9.45-13.62s-9.95-4.5-15.86-4.84c-5.92-0.34-12.13 0.34-17.56 1.32-2.22 0.4-4.48-0.89-5.9-2.86-0.15-0.21-0.13-0.5 0.06-0.68h0.01s0.04-0.05 0.06-0.06l92.72-67.08z" fill="url(#linearGradient696)"/>
  <path class="st26" d="m140.25 145.72c0.14 0 0.27 0.06 0.37 0.16s0.15 0.23 0.15 0.37c0 0.18-0.08 0.33-0.22 0.43l-92.72 67.08c-0.23 0.17-0.56 0.12-0.73-0.12-1.43-1.97-1.95-4.5-0.88-6.49 2.62-4.87 5.2-10.54 6.74-16.27 1.52-5.72 2-11.51 0.36-16.57s-5.41-9.49-9.99-13.24c-4.59-3.76-10-6.85-14.98-9.26-2.04-1-3.08-3.36-3.08-5.79 0-0.14 0.06-0.27 0.15-0.37 0.1-0.1 0.23-0.15 0.37-0.15l114.45 0.22z" fill="url(#linearGradient698)"/>
  <path class="st21" d="m212.43 267.24c10.78 0.13 19.63-8.5 19.77-19.29s-8.5-19.64-19.29-19.77-19.64 8.5-19.77 19.29 8.5 19.63 19.29 19.77z"/>
  <path class="st19" d="m213.77 269.38c10.98 0.13 20-8.66 20.13-19.65s-8.66-20-19.65-20.13-20 8.66-20.13 19.65 8.66 20 19.65 20.13z" fill="url(#Degradado_sin_nombre_4131)"/>
  <path class="st3" d="m20.13 126.28c10.98 0.13 20-8.66 20.13-19.65s-8.66-20-19.65-20.13c-10.98-0.13-20 8.66-20.13 19.65s8.66 20 19.65 20.13z" fill="url(#Degradado_sin_nombre_4121)"/>
  <path class="st30" d="m66.28 64.59c10.98 0.13 20-8.66 20.13-19.65s-8.66-20-19.65-20.13c-10.98-0.13-20 8.66-20.13 19.65s8.66 20 19.65 20.13z" fill="url(#Degradado_sin_nombre_4111)"/>
  <path class="st32" d="m141.63 39.79c10.99 0.13 20-8.66 20.13-19.65s-8.66-19.99-19.65-20.13-20 8.66-20.13 19.65 8.66 20 19.65 20.13z" fill="url(#Degradado_sin_nombre_4101)"/>
  <path class="st33" d="m214.73 65.05c10.98 0.13 20-8.66 20.13-19.65s-8.66-20-19.65-20.13-20 8.66-20.13 19.65c-0.13 10.98 8.66 20 19.65 20.13z" fill="url(#Degradado_sin_nombre_4091)"/>
  <path class="st11" d="m260.28 127.86c10.98 0.13 20-8.66 20.13-19.65s-8.66-20-19.65-20.13-20 8.66-20.13 19.65 8.66 20 19.65 20.13z" fill="url(#Degradado_sin_nombre_4081)"/>
  <path class="st15" d="m259.91 206.34c10.98 0.13 20-8.66 20.13-19.65s-8.66-20-19.65-20.13-20 8.66-20.13 19.65c-0.13 10.98 8.66 20 19.65 20.13z" fill="url(#Degradado_sin_nombre_4071)"/>
  <path class="st4" d="m138.53 292.28c10.99 0.13 20-8.66 20.13-19.65s-8.66-20-19.65-20.13-20 8.66-20.13 19.65 8.66 20 19.65 20.13z" fill="url(#Degradado_sin_nombre_4061)"/>
  <path class="st31" d="m65.27 267.56c10.98 0.13 20-8.66 20.13-19.65s-8.66-20-19.65-20.13-20 8.66-20.13 19.65c-0.13 10.98 8.66 20 19.65 20.13z" fill="url(#Degradado_sin_nombre_4051)"/>
  <path class="st17" d="m19.73 203.4c10.98 0.13 20-8.66 20.13-19.65s-8.66-20-19.65-20.13-19.99 8.66-20.12 19.64 8.66 20 19.65 20.13z" fill="url(#Degradado_sin_nombre_4041)"/>
  <path class="st22" d="m250.46 140.41h-97.14c0.44 0.98 0.78 2.01 0.98 3.09 0.18 0.93 0.27 1.9 0.26 2.89s-0.12 1.95-0.33 2.88l4.35 3.14h91.88c3.31 0 6-2.69 6-6s-2.69-6-6-6z" fill="url(#Degradado_sin_nombre_403)"/>
  <path class="st25" d="m126.22 148.99c-0.19-0.96-0.28-1.94-0.27-2.96 0-0.77 0.1-1.51 0.22-2.25l-4.68-3.38h-91.88c-3.31 0-6 2.69-6 6s2.69 6 6 6h97.76c-0.52-1.07-0.92-2.22-1.15-3.42z" fill="url(#Degradado_sin_nombre_402)"/>
  <path class="st24" d="m130.39 156.56c-1.24-1.18-2.27-2.59-3.02-4.15h-5.88l-74.47 53.82c-2.69 1.94-3.29 5.69-1.35 8.38 1.17 1.62 3.01 2.49 4.87 2.49 1.22 0 2.45-0.37 3.51-1.14l74.52-53.85 4.7-3.4c-1.05-0.59-2.01-1.32-2.88-2.15z" fill="url(#Degradado_sin_nombre_401)"/>
  <path class="st9" d="m234.4 78.21c-1.94-2.69-5.69-3.29-8.38-1.35l-74.51 53.85-4.21 3.04c0.94 0.53 1.8 1.17 2.59 1.89 1.45 1.33 2.63 2.94 3.44 4.76h5.26l74.47-53.82c2.69-1.94 3.29-5.69 1.35-8.38z" fill="url(#Degradado_sin_nombre_400)"/>
  <path class="st7" d="m233.05 206.22-74.47-53.82-4.35-3.14c-0.24 1.1-0.62 2.15-1.1 3.14-0.82 1.7-1.96 3.21-3.35 4.45l1.72 5.24 74.52 53.85c1.06 0.77 2.29 1.14 3.51 1.14 1.86 0 3.69-0.86 4.87-2.49 1.94-2.69 1.34-6.44-1.35-8.38z" fill="url(#Degradado_sin_nombre_399)"/>
  <path class="st0" d="m128.57 130.72-74.52-53.85c-2.69-1.94-6.44-1.34-8.38 1.35s-1.34 6.44 1.35 8.38l74.47 53.82 4.68 3.38c0.2-1.18 0.53-2.32 1.01-3.38 0.75-1.68 1.81-3.2 3.11-4.46l-1.72-5.23z" fill="url(#Degradado_sin_nombre_398)"/>
  <path class="st12" d="m140.87 159.73c-0.6 0-1.19-0.06-1.77-0.14-1.81-0.25-3.51-0.82-5.04-1.68l-4.7 3.4-28.69 87.35c-1.03 3.15 0.68 6.54 3.83 7.57 0.62 0.2 1.25 0.3 1.87 0.3 2.52 0 4.87-1.6 5.7-4.13l28.76-87.56 1.71-5.2c-0.55 0.06-1.1 0.09-1.67 0.08z" fill="url(#Degradado_sin_nombre_397)"/>
  <path class="st28" d="m176.37 35.8c-3.15-1.04-6.54 0.68-7.57 3.83l-28.76 87.56-1.59 4.85c0.65-0.08 1.31-0.14 1.99-0.13 0.4 0 0.79 0.04 1.18 0.07 2.05 0.19 6.57 2.71 8.27 3.67l1.62-4.93 28.69-87.35c1.03-3.15-0.68-6.54-3.83-7.57z" fill="url(#Degradado_sin_nombre_396)"/>
  <path class="st2" d="m180.2 249.45-28.69-87.35-1.72-5.24c-0.85 0.76-1.78 1.43-2.8 1.97-1.59 0.85-3.37 1.41-5.24 1.6l-1.71 5.2 28.76 87.56c0.83 2.53 3.18 4.13 5.7 4.13 0.62 0 1.25-0.1 1.87-0.3 3.15-1.03 4.86-4.42 3.83-7.57z" fill="url(#Degradado_sin_nombre_395)"/>
  <path class="st16" d="m111.28 39.63c-1.03-3.15-4.42-4.87-7.57-3.83-3.15 1.03-4.86 4.42-3.83 7.57l28.69 87.35 1.72 5.23c0.81-0.79 1.72-1.46 2.69-2.04 1.64-0.97 3.49-1.62 5.47-1.87l1.59-4.85z" fill="url(#Degradado_sin_nombre_394)"/>
  <path class="st5" d="m154.31 143.5c-0.21-1.08-0.55-2.11-0.98-3.09-0.81-1.82-1.98-3.43-3.44-4.76-0.79-0.72-1.65-1.36-2.59-1.89-1.71-0.97-3.63-1.59-5.69-1.78-0.39-0.04-0.78-0.07-1.18-0.07-0.67 0-1.33 0.05-1.99 0.13-1.98 0.25-3.82 0.9-5.47 1.87-0.98 0.58-1.88 1.26-2.69 2.04-1.3 1.27-2.36 2.78-3.11 4.46-0.47 1.06-0.8 2.2-1.01 3.38-0.13 0.73-0.21 1.48-0.22 2.25-0.01 1.01 0.08 2 0.27 2.96 0.24 1.2 0.63 2.34 1.15 3.42 0.75 1.56 1.78 2.96 3.02 4.15 0.87 0.83 1.83 1.56 2.88 2.15 1.53 0.86 3.23 1.43 5.04 1.68 0.58 0.08 1.17 0.14 1.77 0.14 0.56 0 1.12-0.03 1.67-0.08 1.88-0.19 3.65-0.75 5.24-1.6 1.01-0.54 1.95-1.21 2.8-1.97 1.39-1.24 2.53-2.75 3.35-4.45 0.48-0.99 0.86-2.04 1.1-3.14 0.2-0.93 0.31-1.89 0.33-2.88 0.01-0.99-0.08-1.95-0.26-2.89z"/>
 </g>
</svg>
